# xmcd
#
# Track frame offsets: 
#        150
#        24726
#        44533
#        76518
#        96647
#        122746
#        161515
#        184617
#        209559
#        231859
#        263328
#        287186
#        302012
#        323329
#
# Disc length: 4781 seconds
#
# Revision: 0
# Processed by: cddbd v1.5.2PL0 Copyright (c) Steve Scherf et al.
# Submitted via: ExactAudioCopy v0.99pb4
#
DISCID=b712ab0e
DTITLE=Various Artist - Luftkastellet 4
DYEAR=2006
DGENRE=Dance-House
TTITLE0=Hess Is More - Yes Boss
TTITLE1=Nigthmare On Wax - The Sweetest 
TTITLE2=Dj Disse - Walk On The Wild Side 
TTITLE3=Smallworld - I Believe 
TTITLE4=The Nomad - Destinations 
TTITLE5=Kenneth Bager - Fragment Four
TTITLE6=Frontera - Everything Changes
TTITLE7=Jose Gonzalez - Crosses 
TTITLE8=The Knife - Silent Shout
TTITLE9=Quentin Harris - Let's Be Young 
TTITLE10=Djosos Krost - Straight up front( Parov stelar mix)
TTITLE11=Coldcut - Walk A Mile In My Shoes
TTITLE12=Twillight - Sacrifice
TTITLE13=Propaganda - Valley Of The Machine Gods
EXTD=
EXTT0=
EXTT1=
EXTT2=
EXTT3=
EXTT4=
EXTT5=
EXTT6=
EXTT7=
EXTT8=
EXTT9=
EXTT10=
EXTT11=
EXTT12=
EXTT13=
PLAYORDER=
